<svg width="235" height="35" viewBox="0 0 235 35" fill="none" xmlns="http://www.w3.org/2000/svg">
<path d="M9.92534 27.932C7.83734 27.932 5.96534 27.596 4.30934 26.924C2.67734 26.252 1.47734 25.304 0.709344 24.08L4.05734 20.696C4.80134 21.656 5.73734 22.376 6.86534 22.856C7.99334 23.312 9.12134 23.54 10.2493 23.54C11.6173 23.54 12.6493 23.216 13.3453 22.568C14.0653 21.896 14.4253 20.984 14.4253 19.832C14.4253 18.992 14.1853 18.38 13.7053 17.996C13.2493 17.588 12.5173 17.264 11.5093 17.024L9.02534 16.448C7.20134 16.04 5.86934 15.284 5.02934 14.18C4.21334 13.052 3.80534 11.708 3.80534 10.148C3.80534 8.9 4.02134 7.772 4.45334 6.764C4.90934 5.756 5.55734 4.892 6.39734 4.172C7.23734 3.452 8.25734 2.9 9.45734 2.516C10.6573 2.132 12.0013 1.94 13.4893 1.94C15.2893 1.94 16.9213 2.252 18.3853 2.876C19.8493 3.5 20.9413 4.364 21.6613 5.468L18.1693 8.672C17.6173 7.904 16.9213 7.316 16.0813 6.908C15.2653 6.476 14.3173 6.26 13.2373 6.26C11.9173 6.26 10.9333 6.56 10.2853 7.16C9.63734 7.76 9.31334 8.564 9.31334 9.572C9.31334 10.292 9.52934 10.844 9.96134 11.228C10.4173 11.612 11.2093 11.948 12.3373 12.236L14.7133 12.848C18.2173 13.736 19.9693 15.86 19.9693 19.22C19.9693 20.516 19.7413 21.704 19.2853 22.784C18.8533 23.84 18.2053 24.752 17.3413 25.52C16.4773 26.288 15.4213 26.888 14.1733 27.32C12.9253 27.728 11.5093 27.932 9.92534 27.932ZM34.0673 6.476C32.9873 6.476 32.2193 6.272 31.7633 5.864C31.3313 5.432 31.1153 4.904 31.1153 4.28C31.1153 4.16 31.1273 4.004 31.1513 3.812C31.1753 3.596 31.2233 3.272 31.2953 2.84C31.4153 2.072 31.7393 1.484 32.2673 1.076C32.7953 0.667999 33.5993 0.463998 34.6793 0.463998C35.7593 0.463998 36.5153 0.679998 36.9473 1.112C37.4033 1.52 37.6313 2.036 37.6313 2.66C37.6313 2.78 37.6193 2.948 37.5953 3.164C37.5713 3.356 37.5233 3.668 37.4513 4.1C37.3313 4.868 37.0073 5.456 36.4793 5.864C35.9513 6.272 35.1473 6.476 34.0673 6.476ZM32.5913 27.932C31.1033 27.932 29.9873 27.548 29.2433 26.78C28.4993 25.988 28.1273 24.932 28.1273 23.612C28.1273 23.204 28.1513 22.808 28.1993 22.424C28.2473 22.04 28.3433 21.476 28.4873 20.732L29.9273 13.028H24.3113L24.9953 8.924H35.9393L33.1673 23.684L33.7793 23.864L38.8193 18.716L41.6993 21.272L39.5033 23.792C38.2793 25.16 37.1273 26.192 36.0473 26.888C34.9913 27.584 33.8393 27.932 32.5913 27.932ZM43.0172 27.5L46.1132 8.924H50.3612L49.8212 12.164H50.0372C50.4452 11.084 50.9852 10.208 51.6572 9.536C52.3292 8.84 53.1572 8.492 54.1412 8.492C55.1012 8.492 55.8332 8.804 56.3372 9.428C56.8652 10.028 57.0692 10.94 56.9492 12.164H57.1292C57.3452 11.636 57.5972 11.156 57.8852 10.724C58.1732 10.268 58.4972 9.884 58.8572 9.572C59.2172 9.236 59.6132 8.972 60.0452 8.78C60.5012 8.588 61.0172 8.492 61.5932 8.492C63.7052 8.492 64.7612 9.644 64.7612 11.948C64.7612 12.356 64.7372 12.812 64.6892 13.316C64.6412 13.796 64.5812 14.252 64.5092 14.684L62.3852 27.5H58.1372L60.1892 15.224C60.2372 15.008 60.2732 14.768 60.2972 14.504C60.3212 14.24 60.3332 13.988 60.3332 13.748C60.3332 13.316 60.2372 12.98 60.0452 12.74C59.8772 12.476 59.6252 12.344 59.2892 12.344C58.9772 12.344 58.6772 12.428 58.3892 12.596C58.1252 12.74 57.8612 13.04 57.5972 13.496C57.3812 13.856 57.2012 14.252 57.0572 14.684C56.9372 15.092 56.8172 15.62 56.6972 16.268L54.8252 27.5H50.5772L52.6292 15.224C52.6772 15.008 52.7132 14.768 52.7372 14.504C52.7612 14.24 52.7732 13.976 52.7732 13.712C52.7732 12.8 52.4252 12.344 51.7292 12.344C51.4652 12.344 51.1892 12.416 50.9012 12.56C50.6372 12.704 50.3612 13.016 50.0732 13.496C49.8092 13.904 49.6052 14.312 49.4612 14.72C49.3412 15.128 49.2572 15.5 49.2092 15.836L47.2652 27.5H43.0172ZM68.8872 8.924H74.1432L73.4232 13.352H73.6032C73.9632 12.632 74.3352 11.984 74.7192 11.408C75.1272 10.808 75.5712 10.292 76.0512 9.86C76.5552 9.428 77.1072 9.092 77.7072 8.852C78.3312 8.612 79.0392 8.492 79.8312 8.492C80.8152 8.492 81.6432 8.66 82.3152 8.996C83.0112 9.332 83.5752 9.824 84.0072 10.472C84.4392 11.096 84.7512 11.852 84.9432 12.74C85.1592 13.628 85.2672 14.612 85.2672 15.692C85.2672 17.54 85.0632 19.22 84.6552 20.732C84.2472 22.22 83.6712 23.504 82.9272 24.584C82.1832 25.64 81.2832 26.468 80.2272 27.068C79.1952 27.644 78.0312 27.932 76.7352 27.932C75.2712 27.932 74.1552 27.596 73.3872 26.924C72.6432 26.228 72.1392 25.268 71.8752 24.044H71.6232L69.8232 34.7H64.5672L68.8872 8.924ZM75.0432 23.864C76.3392 23.864 77.3352 23.492 78.0312 22.748C78.7272 21.98 79.1952 20.888 79.4352 19.472L79.7952 17.312C79.8432 17.096 79.8792 16.856 79.9032 16.592C79.9272 16.304 79.9392 16.004 79.9392 15.692C79.9152 14.804 79.7232 14.06 79.3632 13.46C79.0272 12.86 78.4032 12.56 77.4912 12.56C76.8432 12.56 76.2672 12.716 75.7632 13.028C75.2592 13.34 74.7912 13.772 74.3592 14.324C74.0712 14.66 73.7472 15.14 73.3872 15.764C73.0272 16.364 72.7872 17.048 72.6672 17.816L72.1632 20.804C71.9952 21.788 72.1392 22.544 72.5952 23.072C73.0752 23.6 73.8912 23.864 75.0432 23.864ZM96.3411 27.932C94.8531 27.932 93.7491 27.548 93.0291 26.78C92.3091 25.988 91.9491 24.932 91.9491 23.612C91.9491 23.204 91.9731 22.808 92.0211 22.424C92.0691 22.04 92.1651 21.476 92.3091 20.732L95.2251 4.964H89.7531L90.4371 0.86H101.201L96.9891 23.684L97.5291 23.864L102.569 18.716L105.449 21.272L103.253 23.792C102.029 25.16 100.877 26.192 99.7971 26.888C98.7411 27.584 97.5891 27.932 96.3411 27.932ZM118.323 27.932C115.563 27.932 113.523 27.236 112.203 25.844C110.883 24.428 110.223 22.484 110.223 20.012C110.223 18.284 110.487 16.712 111.015 15.296C111.543 13.88 112.275 12.668 113.211 11.66C114.171 10.652 115.323 9.872 116.667 9.32C118.011 8.768 119.511 8.492 121.167 8.492C122.103 8.492 122.979 8.6 123.795 8.816C124.635 9.032 125.367 9.356 125.991 9.788C126.615 10.196 127.107 10.724 127.467 11.372C127.827 11.996 128.007 12.74 128.007 13.604C128.007 14.348 127.851 15.092 127.539 15.836C127.227 16.58 126.615 17.264 125.703 17.888C124.815 18.488 123.543 19.004 121.887 19.436C120.255 19.844 118.119 20.096 115.479 20.192C115.455 20.336 115.443 20.456 115.443 20.552C115.443 20.624 115.443 20.708 115.443 20.804C115.443 21.812 115.719 22.58 116.271 23.108C116.823 23.636 117.735 23.9 119.007 23.9C119.511 23.9 119.967 23.852 120.375 23.756C120.807 23.66 121.215 23.492 121.599 23.252C122.007 22.988 122.403 22.664 122.787 22.28C123.195 21.872 123.639 21.356 124.119 20.732L127.395 22.856C126.915 23.552 126.387 24.212 125.811 24.836C125.259 25.436 124.623 25.976 123.903 26.456C123.183 26.912 122.367 27.272 121.455 27.536C120.543 27.8 119.499 27.932 118.323 27.932ZM120.627 12.2C119.475 12.2 118.491 12.548 117.675 13.244C116.859 13.916 116.283 15.056 115.947 16.664L115.839 17.168C117.495 17.072 118.791 16.916 119.727 16.7C120.687 16.484 121.395 16.232 121.851 15.944C122.331 15.656 122.631 15.344 122.751 15.008C122.871 14.672 122.931 14.36 122.931 14.072C122.931 12.824 122.163 12.2 120.627 12.2ZM146.173 14.9V6.944H145.885L140.593 19.868L135.301 6.944H135.013V14.9V27.5H132.241V2.372H136.129L140.557 13.46H140.773L145.201 2.372H148.945V27.5H146.173V14.9ZM163.331 4.82C162.491 4.82 161.903 4.652 161.567 4.316C161.231 3.956 161.063 3.512 161.063 2.984V2.408C161.063 1.88 161.231 1.448 161.567 1.112C161.903 0.751999 162.491 0.571999 163.331 0.571999C164.171 0.571999 164.759 0.751999 165.095 1.112C165.431 1.448 165.599 1.88 165.599 2.408V2.984C165.599 3.512 165.431 3.956 165.095 4.316C164.759 4.652 164.171 4.82 163.331 4.82ZM155.195 25.052H161.891V11.372H155.195V8.924H164.771V25.052H171.035V27.5H155.195V25.052ZM175.845 25.052H182.325V3.308H175.845V0.86H185.205V25.052H191.685V27.5H175.845V25.052ZM205.675 27.932C204.331 27.932 203.119 27.704 202.039 27.248C200.983 26.792 200.071 26.144 199.303 25.304C198.559 24.44 197.983 23.42 197.575 22.244C197.167 21.044 196.963 19.712 196.963 18.248C196.963 16.76 197.167 15.416 197.575 14.216C198.007 13.016 198.595 11.996 199.339 11.156C200.083 10.292 200.971 9.632 202.003 9.176C203.059 8.72 204.223 8.492 205.495 8.492C206.743 8.492 207.871 8.72 208.879 9.176C209.911 9.632 210.787 10.268 211.507 11.084C212.227 11.876 212.779 12.824 213.163 13.928C213.547 15.032 213.739 16.244 213.739 17.564V18.932H199.987V19.796C199.987 20.612 200.119 21.368 200.383 22.064C200.647 22.76 201.019 23.36 201.499 23.864C202.003 24.368 202.603 24.764 203.299 25.052C204.019 25.316 204.811 25.448 205.675 25.448C206.923 25.448 208.003 25.16 208.915 24.584C209.827 24.008 210.523 23.216 211.003 22.208L213.127 23.648C212.575 24.896 211.651 25.928 210.355 26.744C209.083 27.536 207.523 27.932 205.675 27.932ZM205.495 10.868C204.703 10.868 203.971 11.012 203.299 11.3C202.627 11.588 202.039 11.984 201.535 12.488C201.055 12.992 200.671 13.592 200.383 14.288C200.119 14.96 199.987 15.704 199.987 16.52V16.772H210.643V16.376C210.643 15.56 210.511 14.816 210.247 14.144C210.007 13.472 209.659 12.896 209.203 12.416C208.771 11.912 208.231 11.528 207.583 11.264C206.959 11 206.263 10.868 205.495 10.868ZM227.153 27.932C225.209 27.932 223.529 27.608 222.113 26.96C220.721 26.288 219.533 25.4 218.549 24.296L220.493 22.604C221.381 23.54 222.353 24.26 223.409 24.764C224.465 25.268 225.737 25.52 227.225 25.52C228.665 25.52 229.841 25.268 230.753 24.764C231.689 24.236 232.157 23.42 232.157 22.316C232.157 21.836 232.061 21.44 231.869 21.128C231.701 20.792 231.461 20.528 231.149 20.336C230.837 20.144 230.489 20 230.105 19.904C229.721 19.784 229.313 19.688 228.881 19.616L225.965 19.184C225.317 19.088 224.609 18.956 223.841 18.788C223.097 18.62 222.413 18.356 221.789 17.996C221.165 17.612 220.637 17.108 220.205 16.484C219.797 15.86 219.593 15.044 219.593 14.036C219.593 13.1 219.773 12.296 220.133 11.624C220.517 10.928 221.045 10.352 221.717 9.896C222.389 9.416 223.181 9.068 224.093 8.852C225.005 8.612 226.001 8.492 227.081 8.492C228.761 8.492 230.213 8.756 231.437 9.284C232.685 9.812 233.753 10.544 234.641 11.48L232.769 13.244C232.553 12.98 232.277 12.716 231.941 12.452C231.629 12.164 231.233 11.912 230.753 11.696C230.297 11.456 229.757 11.264 229.133 11.12C228.509 10.976 227.789 10.904 226.973 10.904C225.509 10.904 224.381 11.156 223.589 11.66C222.821 12.164 222.437 12.896 222.437 13.856C222.437 14.336 222.521 14.744 222.689 15.08C222.881 15.392 223.133 15.644 223.445 15.836C223.757 16.028 224.105 16.184 224.489 16.304C224.897 16.4 225.305 16.484 225.713 16.556L228.629 16.988C229.301 17.084 230.009 17.216 230.753 17.384C231.497 17.552 232.181 17.828 232.805 18.212C233.429 18.572 233.945 19.064 234.353 19.688C234.785 20.312 235.001 21.128 235.001 22.136C235.001 23.984 234.281 25.412 232.841 26.42C231.425 27.428 229.529 27.932 227.153 27.932Z" fill="white"/>
</svg>
